<?xml version="1.0" standalone="no"?>
<!DOCTYPE svg PUBLIC "-//W3C//DTD SVG 20010904//EN"
 "http://www.w3.org/TR/2001/REC-SVG-20010904/DTD/svg10.dtd">
<svg version="1.0" xmlns="http://www.w3.org/2000/svg"
 width="346.000000pt" height="346.000000pt" viewBox="0 0 346.000000 346.000000"
 preserveAspectRatio="xMidYMid meet">
<metadata>
Created by potrace 1.11, written by Peter Selinger 2001-2013
</metadata>
<g transform="translate(0.000000,346.000000) scale(0.100000,-0.100000)"
fill="#000000" stroke="none">
<path d="M1295 3450 c-4 -6 -2 -17 4 -24 6 -7 8 -16 4 -19 -9 -10 -10 -218 0
-224 4 -2 4 -9 0 -16 -9 -15 -10 -218 0 -224 4 -2 4 -9 0 -16 -9 -15 -10 -218
0 -224 4 -2 3 -12 -1 -21 -5 -9 -7 -43 -6 -74 2 -32 2 -58 1 -58 -2 0 -18 11
-36 24 l-32 24 -42 -46 c-23 -26 -58 -63 -77 -83 -19 -20 -48 -51 -63 -68
l-28 -32 28 -37 c15 -20 30 -39 33 -42 13 -12 48 -77 53 -100 l6 -25 -567 0
-567 0 -1 -433 c-1 -237 1 -432 5 -433 39 -5 73 -4 77 3 3 5 10 5 16 2 16 -10
138 -11 144 -2 3 5 10 5 16 2 16 -10 128 -12 128 -2 0 5 6 6 12 1 19 -12 198
-10 198 2 0 5 4 4 9 -3 9 -15 20 -15 37 -1 6 5 14 5 18 1 11 -10 206 -9 206 2
0 5 6 4 13 -1 6 -5 29 -9 50 -8 31 1 42 -4 55 -23 38 -55 135 -138 172 -147
41 -11 59 -19 55 -25 -3 -5 3 -7 12 -6 19 3 53 -12 65 -28 3 -5 5 -33 4 -63
-2 -30 1 -56 6 -59 5 -3 5 -10 2 -16 -12 -18 -10 -298 1 -298 6 0 5 -3 -1 -8
-6 -4 -10 -14 -9 -24 2 -10 -6 -18 -21 -21 -13 -2 -24 0 -24 5 0 5 -8 4 -19
-1 -10 -6 -21 -7 -25 -4 -4 4 -28 8 -53 9 -26 2 -66 6 -88 9 -22 3 -58 9 -80
11 -22 3 -44 9 -50 13 -5 5 -17 9 -25 9 -16 1 -37 6 -60 15 -8 3 -46 15 -83
27 -37 12 -104 39 -148 61 -44 21 -84 39 -89 39 -6 0 -10 5 -10 10 0 6 -6 10
-14 10 -8 0 -16 3 -18 8 -2 4 -19 16 -38 26 -35 19 -35 19 -18 -1 10 -11 18
-23 18 -27 0 -17 230 -266 245 -266 3 0 18 -11 33 -25 15 -14 34 -32 43 -40 9
-8 19 -15 22 -15 4 0 27 -16 52 -35 25 -19 62 -42 83 -52 20 -9 43 -23 50 -30
12 -12 27 -17 44 -15 3 1 12 -5 18 -13 7 -8 21 -15 31 -15 11 0 19 -4 19 -10
0 -5 8 -10 18 -10 10 0 22 -4 27 -9 13 -12 116 -45 156 -50 3 -1 6 -47 5 -103
l0 -103 435 -2 435 -2 -2 44 c-1 24 -5 49 -9 55 -3 5 -2 10 3 10 5 0 8 22 7
50 -2 48 -1 49 29 55 108 21 395 166 461 232 10 10 20 17 22 15 6 -5 83 62
166 144 84 83 133 140 176 203 14 20 28 38 33 39 4 2 6 8 2 13 -3 5 -1 9 4 9
5 0 15 14 22 30 7 16 16 30 21 30 5 0 8 3 7 8 -2 9 14 46 22 52 9 6 50 96 50
108 0 5 7 15 15 22 9 7 14 15 11 17 -2 3 3 21 11 41 8 20 17 47 20 61 9 51 19
59 73 57 28 -2 53 1 56 6 3 5 11 5 17 1 7 -4 24 -8 39 -9 21 -2 29 3 33 19 3
12 4 209 3 437 l-3 415 -90 1 c-49 1 -95 2 -101 3 -8 1 -50 108 -46 118 1 2
-14 34 -33 73 -19 38 -35 73 -35 78 0 4 -11 23 -25 42 -13 18 -22 37 -19 41 3
5 1 9 -4 9 -5 0 -17 18 -27 40 -10 22 -22 40 -26 40 -5 0 -16 15 -25 32 -9 18
-35 55 -58 82 -59 71 -214 224 -220 218 -3 -3 -8 3 -12 12 -3 9 -10 13 -15 10
-5 -3 -9 1 -9 9 0 13 -27 31 -39 27 -2 -1 -7 2 -10 7 -3 4 -15 15 -25 23 -20
15 -20 15 0 -20 10 -19 21 -37 24 -40 13 -12 50 -82 50 -96 0 -8 5 -14 10 -14
6 0 10 -5 10 -10 0 -6 9 -29 19 -53 29 -64 53 -129 58 -157 2 -13 9 -30 15
-37 6 -8 8 -16 5 -20 -4 -3 -1 -15 5 -26 6 -11 13 -37 15 -56 2 -20 7 -43 10
-51 5 -14 9 -47 18 -160 6 -65 8 -93 6 -110 -1 -13 -38 -15 -275 -15 -151 0
-277 3 -280 6 -6 6 21 80 33 89 3 3 17 22 31 42 14 21 28 38 33 38 4 0 7 10 7
21 0 23 -64 101 -74 91 -3 -3 -6 1 -6 9 0 8 -9 20 -20 27 -11 7 -20 19 -20 28
0 8 -4 12 -10 9 -5 -3 -10 1 -10 10 0 9 -4 14 -8 11 -5 -3 -15 6 -22 19 -19
35 -35 37 -64 9 -23 -24 -25 -24 -35 -7 -5 11 -6 25 -2 31 9 15 7 134 -3 150
-4 7 -4 12 1 12 10 0 9 132 -1 148 -4 7 -3 12 3 12 9 0 6 44 -5 62 -3 4 -1 8
3 8 5 0 8 31 8 70 0 38 -4 70 -8 70 -5 0 -5 6 0 13 11 18 10 61 -2 70 -7 5 -7
9 1 15 11 8 12 141 0 160 -4 7 -3 12 3 12 5 0 8 8 6 18 -2 9 -4 23 -4 30 -1
16 -856 18 -866 2z m1315 -2176 c-11 -11 -20 -23 -20 -27 0 -7 -24 -38 -52
-69 -10 -10 -15 -18 -11 -18 3 0 -10 -14 -30 -31 -21 -17 -37 -37 -37 -45 0
-7 -9 -16 -20 -19 -11 -3 -20 -12 -20 -20 0 -8 -9 -17 -20 -20 -11 -4 -18 -10
-15 -15 3 -5 -5 -14 -17 -21 -13 -7 -33 -23 -45 -36 -12 -12 -24 -23 -27 -23
-6 0 -39 -26 -68 -52 -10 -10 -18 -15 -18 -12 0 3 -7 -2 -16 -10 -26 -26 -30
-19 -29 47 0 34 -2 72 -7 84 -4 12 -3 25 1 28 5 3 7 13 4 24 -7 29 31 58 70
52 4 0 7 4 7 9 0 5 3 9 8 8 4 -1 20 4 35 10 16 7 32 12 36 12 4 0 17 9 29 20
12 12 22 18 22 15 0 -12 99 95 104 113 5 16 17 18 81 18 l74 -1 -19 -21z"/>
</g>
</svg>
